REM DIRINDEX 1\2,1\3,1\4,1\5
REM DIRNAME "folder01","folder02","folder03","folder04","folder05"
TITLE ""
FILE "P1Q_t_1320-1329.mp3" MP3
  TRACK 01 AUDIO
    TITLE "3:cjc173_4930"
    INDEX 01 00:00:00
  TRACK 02 AUDIO
    TITLE "0:"
    INDEX 01 00:01:18
  TRACK 03 AUDIO
    TITLE "4:cjc173_4931"
    INDEX 01 00:01:37
  TRACK 04 AUDIO
    TITLE "0:"
    INDEX 01 00:06:17
  TRACK 05 AUDIO
    TITLE "5:cjc173_4932"
    INDEX 01 00:06:38
  TRACK 06 AUDIO
    TITLE "0:"
    INDEX 01 00:11:32
  TRACK 07 AUDIO
    TITLE "3:cjc173_4933"
    INDEX 01 00:12:02
  TRACK 08 AUDIO
    TITLE "0:"
    INDEX 01 00:13:09
  TRACK 09 AUDIO
    TITLE "4:cjc173_4934"
    INDEX 01 00:13:29
  TRACK 10 AUDIO
    TITLE "0:"
    INDEX 01 00:17:03
  TRACK 11 AUDIO
    TITLE "5:cjc173_4935"
    INDEX 01 00:17:22
  TRACK 12 AUDIO
    TITLE "0:"
    INDEX 01 00:21:07
  TRACK 13 AUDIO
    TITLE "3:cjc173_4936"
    INDEX 01 00:21:52
  TRACK 14 AUDIO
    TITLE "0:"
    INDEX 01 00:23:05
  TRACK 15 AUDIO
    TITLE "4:cjc173_4937"
    INDEX 01 00:23:27
  TRACK 16 AUDIO
    TITLE "0:"
    INDEX 01 00:28:40
  TRACK 17 AUDIO
    TITLE "5:cjc173_4938"
    INDEX 01 00:28:60
  TRACK 18 AUDIO
    TITLE "0:"
    INDEX 01 00:34:05
  TRACK 19 AUDIO
    TITLE "3:cjc173_4939"
    INDEX 01 00:34:52
  TRACK 20 AUDIO
    TITLE "0:"
    INDEX 01 00:35:65
  TRACK 21 AUDIO
    TITLE "4:cjc173_4940"
    INDEX 01 00:36:12
  TRACK 22 AUDIO
    TITLE "0:"
    INDEX 01 00:39:26
  TRACK 23 AUDIO
    TITLE "5:cjc173_4941"
    INDEX 01 00:39:46
  TRACK 24 AUDIO
    TITLE "0:"
    INDEX 01 00:43:67
  TRACK 25 AUDIO
    TITLE "3:cjc173_4942"
    INDEX 01 00:44:37
  TRACK 26 AUDIO
    TITLE "0:"
    INDEX 01 00:45:46
  TRACK 27 AUDIO
    TITLE "4:cjc173_4943"
    INDEX 01 00:45:66
  TRACK 28 AUDIO
    TITLE "0:"
    INDEX 01 00:50:22
  TRACK 29 AUDIO
    TITLE "5:cjc173_4944"
    INDEX 01 00:50:42
  TRACK 30 AUDIO
    TITLE "0:"
    INDEX 01 00:55:25
  TRACK 31 AUDIO
    TITLE "3:cjc173_4945"
    INDEX 01 00:55:70
  TRACK 32 AUDIO
    TITLE "0:"
    INDEX 01 00:57:30
  TRACK 33 AUDIO
    TITLE "4:cjc173_4946"
    INDEX 01 00:57:49
  TRACK 34 AUDIO
    TITLE "0:"
    INDEX 01 01:00:36
  TRACK 35 AUDIO
    TITLE "5:cjc173_4947"
    INDEX 01 01:00:58
  TRACK 36 AUDIO
    TITLE "0:"
    INDEX 01 01:06:31
  TRACK 37 AUDIO
    TITLE "3:cjc173_4948"
    INDEX 01 01:07:05
  TRACK 38 AUDIO
    TITLE "0:"
    INDEX 01 01:08:28
  TRACK 39 AUDIO
    TITLE "4:cjc173_4949"
    INDEX 01 01:08:47
  TRACK 40 AUDIO
    TITLE "0:"
    INDEX 01 01:12:33
  TRACK 41 AUDIO
    TITLE "5:cjc173_4950"
    INDEX 01 01:12:55
  TRACK 42 AUDIO
    TITLE "0:"
    INDEX 01 01:16:27
  TRACK 43 AUDIO
    TITLE "3:cjc173_4951"
    INDEX 01 01:16:74
  TRACK 44 AUDIO
    TITLE "0:"
    INDEX 01 01:18:10
  TRACK 45 AUDIO
    TITLE "4:cjc173_4952"
    INDEX 01 01:18:30
  TRACK 46 AUDIO
    TITLE "0:"
    INDEX 01 01:24:03
  TRACK 47 AUDIO
    TITLE "5:cjc173_4953"
    INDEX 01 01:24:23
  TRACK 48 AUDIO
    TITLE "0:"
    INDEX 01 01:29:14
  TRACK 49 AUDIO
    TITLE "3:cjc173_4954"
    INDEX 01 01:29:57
  TRACK 50 AUDIO
    TITLE "0:"
    INDEX 01 01:30:72
  TRACK 51 AUDIO
    TITLE "4:cjc173_4955"
    INDEX 01 01:31:17
  TRACK 52 AUDIO
    TITLE "0:"
    INDEX 01 01:34:47
  TRACK 53 AUDIO
    TITLE "5:cjc173_4956"
    INDEX 01 01:34:66
  TRACK 54 AUDIO
    TITLE "0:"
    INDEX 01 01:40:10
  TRACK 55 AUDIO
    TITLE "3:cjc173_4957"
    INDEX 01 01:40:67
  TRACK 56 AUDIO
    TITLE "0:"
    INDEX 01 01:42:05
  TRACK 57 AUDIO
    TITLE "4:cjc173_4958"
    INDEX 01 01:42:27
  TRACK 58 AUDIO
    TITLE "0:"
    INDEX 01 01:44:63
  TRACK 59 AUDIO
    TITLE "5:cjc173_4959"
    INDEX 01 01:45:07
  TRACK 60 AUDIO
    TITLE "0:"
    INDEX 01 01:51:27
